<svg width="24" height="24" viewBox="0 0 24 24" fill="none" xmlns="http://www.w3.org/2000/svg">
<path d="M13.2941 2.56307C12.4571 2.07982 11.3869 2.36661 10.9036 3.20362C10.4204 4.04063 10.7071 5.11091 11.5441 5.59416C12.2676 6.01183 13.1652 5.85429 13.7076 5.26344L17.721 7.56544C17.5061 8.31895 17.8203 9.15015 18.5297 9.55971C18.6508 9.62962 18.7767 9.68341 18.9051 9.72175L18.9043 14.3748C18.4909 14.4981 18.1219 14.7736 17.8891 15.1768C17.647 15.5962 17.5982 16.0742 17.7151 16.5076L13.6935 18.8142C13.5793 18.6931 13.4457 18.5863 13.2941 18.4988C12.4571 18.0155 11.3869 18.3023 10.9036 19.1393C10.4204 19.9763 10.7071 21.0466 11.5441 21.5299C12.3812 22.0131 13.4514 21.7263 13.9347 20.8893C14.149 20.5181 14.2119 20.101 14.1424 19.7095L18.2406 17.3589C18.328 17.4366 18.4245 17.5066 18.5297 17.5673C19.3667 18.0506 20.437 17.7638 20.9202 16.9268C21.4035 16.0898 21.1167 15.0195 20.2797 14.5362C20.1586 14.4663 20.0327 14.4125 19.9043 14.3742L19.9051 9.7211C20.3186 9.5978 20.6875 9.3223 20.9202 8.91916C21.4035 8.08215 21.1167 7.01187 20.2797 6.52862C19.6164 6.14569 18.8067 6.24627 18.2586 6.721L14.1465 4.36236C14.261 3.66457 13.9428 2.93756 13.2941 2.56307Z" fill="black" fill-opacity="0.9"/>
<path d="M7.46594 15.0518C6.91366 15.0518 6.46594 15.4995 6.46594 16.0518C6.46594 16.6041 6.91366 17.0518 7.46594 17.0518L12.4659 17.0518C13.0182 17.0518 13.4659 16.6041 13.4659 16.0518C13.4659 15.4995 13.0182 15.0518 12.4659 15.0518L7.46594 15.0518Z" fill="black" fill-opacity="0.9"/>
<path d="M12.4659 13.0478C13.0182 13.0478 13.4659 12.6001 13.4659 12.0478C13.4659 11.4955 13.0182 11.0478 12.4659 11.0478H5.46594C4.91366 11.0478 4.46594 11.4955 4.46594 12.0478C4.46594 12.6001 4.91366 13.0478 5.46594 13.0478H12.4659Z" fill="black" fill-opacity="0.9"/>
<path d="M12.4659 9.04416L3.46594 9.04416C2.91366 9.04416 2.46594 8.59644 2.46594 8.04416C2.46594 7.49188 2.91366 7.04416 3.46594 7.04416H12.4659C13.0182 7.04416 13.4659 7.49187 13.4659 8.04416C13.4659 8.59644 13.0182 9.04416 12.4659 9.04416Z" fill="black" fill-opacity="0.9"/>
</svg>
