<svg viewBox="0 0 512 512" xmlns="http://www.w3.org/2000/svg"><path d="m0 0h512v512h-512z" fill="none" transform="matrix(-1 0 0 -1 512 512)"/><path d="m389.69 165.33a21.33 21.33 0 1 1 21.31 21.34 21.33 21.33 0 0 1 -21.31-21.34zm-49.69-62.57a21.34 21.34 0 1 0 21.34 21.34 21.33 21.33 0 0 0 -21.34-21.34zm0 262.48a21.34 21.34 0 1 0 21.34 21.34 21.34 21.34 0 0 0 -21.34-21.34zm71-42.66a21.33 21.33 0 1 0 21.33 21.33 21.33 21.33 0 0 0 -21.33-21.33zm0-87.91a21.33 21.33 0 1 0 21.35 21.33 21.33 21.33 0 0 0 -21.35-21.33zm-71-13.36a10.67 10.67 0 1 0 -10.66-10.66 10.66 10.66 0 0 0 10.66 10.66zm0 90.92a10.67 10.67 0 1 0 -10.66-10.67 10.67 10.67 0 0 0 10.66 10.67zm-73.34-207.52v302.58a31.95 31.95 0 1 1 -42.66 30 32.41 32.41 0 0 1 .71-6.65l-103.51-63a31.89 31.89 0 1 1 -30.2-55.15v-117.08a31.92 31.92 0 1 1 32.5-53.27l101.43-60.14a32 32 0 1 1 41.73 22.69zm-133.13 60.62a31.73 31.73 0 0 1 -7.89 20.84l26.67 47 73.16-126.88-92.37 54.71a32.72 32.72 0 0 1 .43 4.33zm6.47 89.24-27.86-49.06v97.39zm86.56 152.53-74.39-131-26.4 45.79a31 31 0 0 1 6.85 28zm18.77-292.58-80.8 140.14 80.8 142.34z" fill="#e50914"/></svg>