<svg width="136" height="48" viewBox="0 0 136 48" fill="none" xmlns="http://www.w3.org/2000/svg">
<path d="M63.804 34V11.728H72.476C74.7587 11.728 76.7533 12.1867 78.46 13.104C80.1667 14.0213 81.4787 15.312 82.396 16.976C83.3347 18.64 83.804 20.6027 83.804 22.864C83.804 25.1253 83.3347 27.088 82.396 28.752C81.4787 30.416 80.1667 31.7067 78.46 32.624C76.7533 33.5413 74.7587 34 72.476 34H63.804ZM69.02 29.488H72.156C74.0973 29.488 75.644 28.912 76.796 27.76C77.948 26.608 78.524 24.976 78.524 22.864C78.524 20.752 77.948 19.12 76.796 17.968C75.644 16.816 74.0973 16.24 72.156 16.24H69.02V29.488Z" fill="white"/>
<path d="M97.4168 34.512C95.1554 34.512 93.1821 34.0107 91.4967 33.008C89.8114 32.0053 88.4994 30.6293 87.5607 28.88C86.6221 27.1093 86.1528 25.104 86.1528 22.864C86.1528 20.6027 86.6221 18.5973 87.5607 16.848C88.4994 15.0987 89.8114 13.7227 91.4967 12.72C93.1821 11.7173 95.1448 11.216 97.3848 11.216C99.9661 11.216 102.142 11.8453 103.913 13.104C105.683 14.3413 106.846 16.0907 107.401 18.352H102.089C101.769 17.6053 101.214 16.9973 100.425 16.528C99.6568 16.0587 98.6434 15.824 97.3848 15.824C95.5714 15.824 94.1207 16.4533 93.0327 17.712C91.9661 18.9707 91.4328 20.688 91.4328 22.864C91.4328 24.9973 91.9767 26.7147 93.0648 28.016C94.1528 29.296 95.6568 29.936 97.5768 29.936C98.6008 29.936 99.4861 29.7547 100.233 29.392C101.001 29.008 101.598 28.5067 102.025 27.888C102.451 27.248 102.665 26.5547 102.665 25.808V25.552H97.3848V21.264H107.785V24.56C107.785 26.416 107.379 28.1013 106.569 29.616C105.758 31.1093 104.574 32.304 103.017 33.2C101.481 34.0747 99.6141 34.512 97.4168 34.512Z" fill="white"/>
<path d="M119.463 34.512C116.733 34.512 114.546 33.8933 112.903 32.656C111.261 31.4187 110.205 29.6907 109.735 27.472H114.887C115.122 28.24 115.634 28.8693 116.423 29.36C117.213 29.8507 118.205 30.096 119.399 30.096C120.509 30.096 121.405 29.8933 122.087 29.488C122.77 29.0827 123.111 28.5173 123.111 27.792C123.111 27.344 123.005 26.96 122.791 26.64C122.599 26.32 122.205 26.0427 121.607 25.808C121.031 25.552 120.157 25.328 118.983 25.136L116.615 24.72C114.567 24.3573 113.021 23.6853 111.975 22.704C110.951 21.7013 110.439 20.2507 110.439 18.352C110.439 16.88 110.823 15.6107 111.591 14.544C112.359 13.4773 113.405 12.656 114.727 12.08C116.05 11.504 117.522 11.216 119.143 11.216C121.597 11.216 123.623 11.792 125.223 12.944C126.823 14.096 127.794 15.7493 128.135 17.904H122.983C122.791 17.1787 122.375 16.624 121.735 16.24C121.117 15.8347 120.274 15.632 119.207 15.632C118.098 15.632 117.223 15.8347 116.583 16.24C115.965 16.6453 115.655 17.1893 115.655 17.872C115.655 18.4907 115.911 18.9813 116.423 19.344C116.935 19.7067 117.959 20.0267 119.495 20.304L121.831 20.688C126.183 21.4347 128.359 23.6213 128.359 27.248C128.359 28.8053 127.975 30.128 127.207 31.216C126.461 32.304 125.415 33.1253 124.071 33.68C122.749 34.2347 121.213 34.512 119.463 34.512Z" fill="white"/>
<path d="M26.5883 5.12617C24.9143 4.15967 22.7737 4.73324 21.8072 6.40726C20.8407 8.08129 21.4143 10.2219 23.0883 11.1884C24.5351 12.0237 26.3305 11.7086 27.4151 10.5269L35.442 15.1309C35.0123 16.6379 35.6406 18.3003 37.0594 19.1194C37.3015 19.2593 37.5535 19.3668 37.8102 19.4435L37.8087 28.7496C36.9817 28.9962 36.2438 29.5472 35.7783 30.3536C35.294 31.1924 35.1964 32.1484 35.4302 33.0151L27.387 37.6285C27.1586 37.3862 26.8915 37.1726 26.5883 36.9976C24.9143 36.0311 22.7737 36.6046 21.8072 38.2787C20.8407 39.9527 21.4143 42.0933 23.0883 43.0597C24.7623 44.0262 26.9029 43.4527 27.8694 41.7787C28.298 41.0362 28.4238 40.202 28.2849 39.4191L36.4813 34.7179C36.656 34.8732 36.849 35.0132 37.0594 35.1346C38.7334 36.1011 40.874 35.5276 41.8405 33.8535C42.807 32.1795 42.2334 30.039 40.5594 29.0725C40.3172 28.9327 40.0654 28.8251 39.8087 28.7484L39.8102 19.4422C40.6371 19.1956 41.375 18.6446 41.8405 17.8384C42.807 16.1643 42.2334 14.0238 40.5594 13.0573C39.2328 12.2914 37.6134 12.4926 36.5173 13.442L28.2929 8.72475C28.522 7.32916 27.8855 5.87514 26.5883 5.12617Z" fill="white"/>
<path d="M14.9319 30.1036C13.8273 30.1036 12.9319 30.999 12.9319 32.1036C12.9319 33.2081 13.8273 34.1036 14.9319 34.1036L24.9319 34.1036C26.0365 34.1036 26.9319 33.2081 26.9319 32.1036C26.9319 30.999 26.0365 30.1036 24.9319 30.1036L14.9319 30.1036Z" fill="white"/>
<path d="M24.9319 26.0956C26.0365 26.0956 26.9319 25.2001 26.9319 24.0956C26.9319 22.991 26.0365 22.0956 24.9319 22.0956H10.9319C9.82732 22.0956 8.93188 22.991 8.93188 24.0956C8.93188 25.2001 9.82732 26.0956 10.9319 26.0956H24.9319Z" fill="white"/>
<path d="M24.9319 18.0883L6.93188 18.0883C5.82732 18.0883 4.93188 17.1929 4.93188 16.0883C4.93188 14.9838 5.82732 14.0883 6.93188 14.0883H24.9319C26.0365 14.0883 26.9319 14.9838 26.9319 16.0883C26.9319 17.1929 26.0365 18.0883 24.9319 18.0883Z" fill="white"/>
</svg>
